
		<svg xmlns="http://www.w3.org/2000/svg" xmlns:xlink="http://www.w3.org/1999/xlink" version="1.1" width="3198.6754966887415" height="3009.933774834437">
			<rect fill="#2c2c2c" width="3198.6754966887415" height="3009.933774834437"/>
			<g transform="scale(9.933774834437086) translate(10, 10)">
				<defs id="SvgjsDefs1291"></defs><g id="SvgjsG1292" featureKey="root" fill="#2c2c2c"></g><g id="SvgjsG1293" featureKey="container1" fill="#39e879" transform="matrix(1.2845607641774568,0,0,1.2845607641774568,20,5)"><defs xmlns="http://www.w3.org/2000/svg"></defs><g xmlns="http://www.w3.org/2000/svg">  <path d="M102.174,199.588c53.8,0,97.413-43.613,97.413-97.413S155.974,4.762,102.174,4.762S4.761,48.375,4.761,102.175    S48.375,199.588,102.174,199.588z M102.174,9.762c50.957,0,92.413,41.457,92.413,92.413s-41.456,92.413-92.413,92.413    c-50.957,0-92.413-41.457-92.413-92.413S51.218,9.762,102.174,9.762z"></path>  <path d="M102.174,191.585c49.38,0,89.41-40.03,89.41-89.41s-40.03-89.41-89.41-89.41c-49.38,0-89.41,40.03-89.41,89.41    S52.794,191.585,102.174,191.585z M102.174,14.765c48.198,0,87.41,39.212,87.41,87.41s-39.212,87.41-87.41,87.41    c-48.198,0-87.41-39.212-87.41-87.41S53.976,14.765,102.174,14.765z"></path>  <path d="M102.174,204.35c56.339,0,102.174-45.835,102.174-102.175S158.513,0,102.174,0C45.835,0,0,45.835,0,102.175    S45.835,204.35,102.174,204.35z M102.174,2c55.236,0,100.174,44.938,100.174,100.175S157.411,202.35,102.174,202.35    C46.938,202.35,2,157.411,2,102.175S46.938,2,102.174,2z"></path></g></g><g id="SvgjsG1294" featureKey="symbol1" fill="#39e879" transform="matrix(0.9210526315789473,0,0,0.9210526315789473,106.78947368421052,55.31578947368421)"><g xmlns="http://www.w3.org/2000/svg"><g><path d="M84,88H50V60.828l5.414-5.414c0.781-0.781,0.781-2.047,0-2.828c-0.78-0.781-2.048-0.781-2.828,0L50,55.172V42.828    l11.414-11.414c0.781-0.781,0.781-2.047,0-2.828c-0.78-0.781-2.048-0.781-2.828,0L50,37.172V24c0-1.104-0.896-2-2-2s-2,0.896-2,2    v25.172l-8.586-8.586c-0.78-0.781-2.048-0.781-2.828,0c-0.781,0.781-0.781,2.047,0,2.828L46,54.828V88H12c-1.104,0-2,0.896-2,2    s0.896,2,2,2h72c1.104,0,2-0.896,2-2S85.104,88,84,88z"></path><path d="M30,62h6c1.104,0,2-0.896,2-2s-0.896-2-2-2h-6c-8.822,0-16-7.178-16-16s7.178-16,16-16c1.104,0,2-0.896,2-2    c0-8.822,7.178-16,16-16s16,7.178,16,16c0,1.104,0.896,2,2,2c8.822,0,16,7.178,16,16s-7.178,16-16,16h-6c-1.104,0-2,0.896-2,2    s0.896,2,2,2h6c11.028,0,20-8.972,20-20c0-10.384-7.955-18.945-18.091-19.91C66.945,11.955,58.384,4,48,4    s-18.945,7.955-19.91,18.09C17.955,23.055,10,31.616,10,42C10,53.028,18.972,62,30,62z"></path></g></g></g><g id="SvgjsG1295" featureKey="text1" fill="#ffffff" transform="matrix(1.5407932899363168,0,0,1.5407932899363168,67.52192043934184,157.39063994567135)"><path d="M2.4609 16.19145 c0.75195 -3.8867 3.1641 -7.4512 7.5195 -7.4512 c1.4746 0 3.4961 0.52734 4.541 2.8516 l-2.1777 1.3477 c-0.86914 -1.5332 -1.9043 -1.7188 -2.6953 -1.7188 c-2.0605 0 -3.9355 2.0313 -4.5313 5.127 c-0.58594 3.0176 0.45898 5.0781 2.334 5.0781 c1.0645 0 2.3633 -0.37109 3.7793 -2.0215 l1.8262 1.4941 c-1.8652 2.373 -4.0625 2.9883 -5.8301 2.9883 c-4.375 0 -5.4883 -4.0137 -4.7656 -7.6953 z M20.234359375 14.92185 c-1.582 0 -2.7051 1.6895 -3.0273 3.3496 c-0.3418 1.7871 0.32227 3.3789 1.709 3.3789 c1.4844 0 2.666 -1.5625 3.0176 -3.3594 c0.36133 -1.8652 -0.078125 -3.3691 -1.6992 -3.3691 z M18.505859375 23.83789 c-3.5059 0 -4.2676 -3.0566 -3.7793 -5.5566 c0.42969 -2.2363 2.3242 -5.5469 5.9375 -5.5469 c3.7109 0 4.1895 3.3008 3.75 5.5371 c-0.49805 2.5586 -2.4609 5.5664 -5.9082 5.5664 z M34.7855 23.59375 l-2.1777 0 l0.18555 -1.4453 c-1.1523 1.0742 -2.2559 1.6992 -3.6133 1.6992 c-3.1836 0 -3.7793 -2.9102 -3.3203 -5.2832 c0.48828 -2.5195 2.1875 -5.8398 5.7227 -5.8398 c1.1523 0 1.9238 0.53711 2.5879 1.4063 l0.97656 -5.0293 l2.627 -0.91797 z M33.0859 19.71675 l0.58594 -3.0371 c-0.29297 -0.95703 -1.084 -1.6211 -2.1777 -1.6211 c-1.7969 0 -2.6855 1.6992 -3.0078 3.3301 c-0.29297 1.5137 0.039063 3.1543 1.6406 3.1543 c1.1914 0 2.2656 -0.76172 2.959 -1.8262 z M46.79678125 18.92575 l-6.8652 0 c-0.32227 1.7676 0.27344 2.8027 1.748 2.8027 c1.0254 0 1.9629 -0.19531 3.0371 -1.4941 l1.5723 1.1133 c-1.4844 1.9141 -2.8711 2.5195 -5.1172 2.5195 c-3.3398 0 -4.082 -2.8516 -3.6035 -5.2734 c0.6543 -3.3301 2.7832 -5.8301 6.0352 -5.8301 c3.3398 0 3.8867 2.8418 3.4082 5.3613 c-0.029297 0.15625 -0.068359 0.25391 -0.21484 0.80078 z M40.37108125 17.22655 l4.4043 0 c0.12695 -1.3281 -0.35156 -2.2949 -1.7188 -2.2949 c-1.2695 0 -2.2461 1.0449 -2.6855 2.2949 z M47.685559375 21.39645 l1.8652 -1.1523 c0.39063 0.79102 1.1133 1.4453 2.1973 1.4453 c0.74219 0 1.8164 -0.3125 1.9922 -1.1719 c0.35156 -1.6797 -5.1465 -1.3477 -4.4824 -4.7461 c0.41016 -2.1094 2.041 -3.0273 4.1113 -3.0273 c1.4258 0 3.0176 0.85938 3.5742 2.2656 l-1.7383 1.0547 c-0.51758 -0.69336 -1.2598 -1.2012 -2.0605 -1.2012 c-0.66406 0 -1.4453 0.25391 -1.5918 0.9668 c-0.3418 1.6406 5.2441 1.2988 4.5703 4.7852 c-0.41992 2.168 -2.3926 3.2422 -4.4727 3.2422 c-1.7578 0 -3.2324 -0.72266 -3.9648 -2.4609 z M63.974596875 23.6035156 l1.25 -6.3965 c0.22461 -1.1328 0.039063 -2.1387 -1.2598 -2.1387 c-1.0547 0 -2.0215 1.0352 -2.627 1.8945 l-1.2793 6.6406 l-2.4805 0 l2.8125 -14.512 l2.6563 -0.87891 l-1.1816 6.0449 c1.0059 -0.95703 1.9727 -1.5234 3.252 -1.5234 c2.6074 0 3.0078 2.2266 2.5684 4.4824 l-1.2402 6.3867 l-2.4707 0 z M75.08789375 20.23435 l0.3418 -1.7285 c-1.3086 0 -3.7695 0.0097656 -4.1211 1.8457 c-0.17578 0.9082 0.20508 1.4063 1.1523 1.4063 c0.92773 0 2.0117 -0.72266 2.627 -1.5234 z M76.85549375 23.59375 l-2.041 0 s0.12695 -1.1621 0.17578 -1.3965 c-0.88867 0.79102 -2.2363 1.6699 -3.4961 1.6699 c-2.1191 0 -3.0176 -1.5039 -2.627 -3.4961 c0.66406 -3.4082 4.3945 -3.4863 6.8652 -3.5059 c0.27344 -1.4063 0.097656 -1.9434 -1.2988 -1.9434 c-0.91797 0 -1.7188 0.2832 -2.8418 0.95703 l-0.87891 -1.6895 c1.3281 -1.0645 2.7148 -1.4355 4.0527 -1.4355 c3.8672 0 3.7109 2.5 3.1641 5.332 z M87.285203125 13.19375 l-1.084 2.168 c-0.47852 -0.18555 -0.80078 -0.2832 -1.0254 -0.2832 c-0.97656 0 -1.6797 0.64453 -2.3926 1.748 l-1.3184 6.7676 l-2.4219 0 l2.0801 -10.674 l2.0605 0 l-0.097656 1.4258 c0.76172 -0.80078 1.4844 -1.4941 2.6953 -1.6113 c0.44922 -0.039063 1.084 0.13672 1.5039 0.45898 z M95.849515625 18.92575 l-6.8652 0 c-0.32227 1.7676 0.27344 2.8027 1.748 2.8027 c1.0254 0 1.9629 -0.19531 3.0371 -1.4941 l1.5723 1.1133 c-1.4844 1.9141 -2.8711 2.5195 -5.1172 2.5195 c-3.3398 0 -4.082 -2.8516 -3.6035 -5.2734 c0.6543 -3.3301 2.7832 -5.8301 6.0352 -5.8301 c3.3398 0 3.8867 2.8418 3.4082 5.3613 c-0.029297 0.15625 -0.068359 0.25391 -0.21484 0.80078 z M89.423815625 17.22655 l4.4043 0 c0.12695 -1.3281 -0.35156 -2.2949 -1.7188 -2.2949 c-1.2695 0 -2.2461 1.0449 -2.6855 2.2949 z M96.73829375 21.39645 l1.8652 -1.1523 c0.39063 0.79102 1.1133 1.4453 2.1973 1.4453 c0.74219 0 1.8164 -0.3125 1.9922 -1.1719 c0.35156 -1.6797 -5.1465 -1.3477 -4.4824 -4.7461 c0.41016 -2.1094 2.041 -3.0273 4.1113 -3.0273 c1.4258 0 3.0176 0.85938 3.5742 2.2656 l-1.7383 1.0547 c-0.51758 -0.69336 -1.2598 -1.2012 -2.0605 -1.2012 c-0.66406 0 -1.4453 0.25391 -1.5918 0.9668 c-0.3418 1.6406 5.2441 1.2988 4.5703 4.7852 c-0.41992 2.168 -2.3926 3.2422 -4.4727 3.2422 c-1.7578 0 -3.2324 -0.72266 -3.9648 -2.4609 z"></path></g><g id="SvgjsG1296" featureKey="text3" fill="#ffffff" transform="matrix(0.8294758495223711,0,0,0.8294758495223711,102.31982886995287,201.93287012866438)"><path d="M9.16 16.44 l1.26 0 c0 0.82 -0.1 1.82 -0.44 2.64 c-0.08 0.18 -0.14 0.3 -0.24 0.4 c-0.1 0.08 -0.22 0.14 -0.44 0.22 c-1.1 0.36 -2.5 0.4 -3.44 0.4 c-1.1 0 -2.56 -0.04 -3.78 -0.54 c-0.24 -0.1 -0.36 -0.18 -0.5 -0.32 c-0.1 -0.14 -0.18 -0.28 -0.28 -0.52 c-0.48 -1.42 -0.48 -3.32 -0.48 -4.4 c0 -1.12 0 -3 0.48 -4.4 c0.1 -0.26 0.18 -0.38 0.28 -0.52 c0.14 -0.14 0.26 -0.2 0.5 -0.34 c1.16 -0.52 2.82 -0.54 3.78 -0.54 c0.86 0 2.3 0 3.38 0.42 c0.22 0.08 0.34 0.16 0.44 0.26 c0.08 0.08 0.16 0.22 0.24 0.4 c0.32 0.78 0.42 1.72 0.44 2.52 l-1.26 0 c-0.02 -0.72 -0.12 -1.44 -0.36 -1.94 c-0.06 -0.1 -0.1 -0.18 -0.16 -0.24 s-0.16 -0.1 -0.32 -0.16 c-0.56 -0.22 -1.5 -0.28 -2.4 -0.28 c-1.06 0 -2.16 0.14 -2.82 0.48 c-0.18 0.1 -0.28 0.18 -0.36 0.26 c-0.08 0.1 -0.14 0.2 -0.22 0.46 c-0.3 0.88 -0.4 2.24 -0.4 3.6 s0.12 2.7 0.38 3.6 c0.08 0.24 0.16 0.36 0.24 0.46 s0.18 0.18 0.36 0.26 c0.66 0.32 1.76 0.46 2.82 0.46 c0.94 0 1.88 -0.1 2.46 -0.28 c0.16 -0.06 0.24 -0.08 0.32 -0.14 s0.12 -0.16 0.18 -0.26 c0.22 -0.54 0.32 -1.22 0.34 -1.96 z M19.259999999999998 18.64 c0.18 -0.1 0.28 -0.18 0.36 -0.28 c0.1 -0.14 0.12 -0.24 0.18 -0.42 c0.26 -0.96 0.38 -2.28 0.38 -3.64 s-0.12 -2.72 -0.38 -3.62 c-0.08 -0.26 -0.12 -0.34 -0.18 -0.44 c-0.08 -0.08 -0.18 -0.16 -0.36 -0.26 c-0.62 -0.34 -1.62 -0.48 -2.64 -0.48 c-0.98 0 -1.98 0.16 -2.62 0.48 c-0.16 0.1 -0.26 0.18 -0.34 0.26 c-0.08 0.1 -0.12 0.18 -0.2 0.44 c-0.26 0.9 -0.38 2.26 -0.38 3.62 s0.12 2.68 0.38 3.64 c0.06 0.18 0.12 0.32 0.2 0.42 s0.18 0.18 0.32 0.26 c0.66 0.32 1.66 0.46 2.64 0.46 c1.02 0 2.02 -0.14 2.64 -0.44 z M20.22 19.56 c-1.16 0.5 -2.52 0.54 -3.6 0.54 c-0.98 0 -2.46 -0.04 -3.56 -0.54 c-0.26 -0.1 -0.4 -0.18 -0.5 -0.32 s-0.18 -0.28 -0.26 -0.52 c-0.42 -1.42 -0.46 -3.3 -0.46 -4.4 c0 -1.12 0.02 -2.98 0.46 -4.4 c0.08 -0.26 0.16 -0.38 0.26 -0.52 c0.14 -0.14 0.24 -0.2 0.5 -0.34 c1.06 -0.52 2.72 -0.54 3.56 -0.54 c0.94 0 2.5 0.02 3.6 0.54 c0.24 0.14 0.34 0.2 0.48 0.34 c0.1 0.14 0.18 0.26 0.26 0.52 c0.48 1.4 0.46 3.28 0.46 4.4 c0 1.08 0.02 2.98 -0.46 4.4 c-0.08 0.24 -0.16 0.38 -0.26 0.52 s-0.24 0.22 -0.48 0.32 z M27.94 20 l-4.7 0 l0 -11.36 l4.7 0 c1 0 2.62 0 3.78 0.52 c0.26 0.14 0.4 0.22 0.5 0.32 c0.1 0.14 0.18 0.26 0.28 0.52 c0.52 1.32 0.48 3.28 0.48 4.32 c0 1.06 0.04 2.92 -0.48 4.32 c-0.08 0.22 -0.14 0.38 -0.28 0.52 c-0.1 0.1 -0.24 0.18 -0.5 0.32 c-1.18 0.48 -2.68 0.52 -3.78 0.52 z M24.520000000000003 19 l3.42 0 c1.06 0 2.18 -0.14 2.8 -0.44 c0.22 -0.1 0.32 -0.18 0.4 -0.28 s0.14 -0.22 0.2 -0.4 c0.3 -0.94 0.4 -2.24 0.4 -3.58 s-0.16 -2.66 -0.42 -3.54 c-0.08 -0.24 -0.12 -0.36 -0.18 -0.44 c-0.08 -0.1 -0.18 -0.18 -0.4 -0.28 c-0.62 -0.32 -1.74 -0.46 -2.8 -0.46 l-3.42 0 l0 9.42 z M34.800000000000004 8.64 l1.28 0 l0 11.36 l-1.28 0 l0 -11.36 z M46.74000000000001 19.02 l0.04 0 l0 -0.84 l0 -9.54 l1.28 0 l0 11.36 l-2.22 0 l-5.96 -9.58 c-0.18 -0.26 -0.32 -0.54 -0.48 -0.84 l-0.06 0 c0 0.3 0.02 0.6 0.02 0.84 l0 9.58 l-1.28 0 l0 -11.36 l2.04 0 l6.1 9.54 c0.18 0.3 0.34 0.58 0.52 0.84 z M57.620000000000005 18.82 c0.1 -0.04 0.16 -0.08 0.2 -0.12 c0.06 -0.06 0.08 -0.12 0.14 -0.26 c0.16 -0.42 0.26 -1.06 0.26 -1.68 l0 -1.52 l-3.42 0 l0 -1.06 l4.68 0 l0 5.82 l-1.08 0 l-0.12 -1.12 l-0.06 0 c-0.02 0.14 -0.06 0.28 -0.1 0.4 c-0.06 0.16 -0.1 0.26 -0.16 0.32 s-0.14 0.12 -0.26 0.18 c-0.72 0.34 -1.52 0.32 -2.3 0.32 c-1.4 0 -2.94 0.04 -4.26 -0.54 c-0.24 -0.1 -0.4 -0.18 -0.5 -0.32 s-0.18 -0.28 -0.28 -0.54 c-0.48 -1.38 -0.48 -3.3 -0.48 -4.38 c0 -1.12 0 -3 0.48 -4.4 c0.1 -0.26 0.18 -0.38 0.28 -0.52 c0.14 -0.14 0.26 -0.22 0.52 -0.36 c1.14 -0.48 2.8 -0.52 3.76 -0.52 c0.86 0 2.3 0 3.38 0.42 c0.22 0.08 0.34 0.16 0.44 0.26 c0.08 0.08 0.16 0.22 0.24 0.4 c0.32 0.72 0.42 1.62 0.44 2.4 l-1.28 0 c-0.02 -0.7 -0.12 -1.34 -0.34 -1.82 c-0.06 -0.1 -0.1 -0.18 -0.16 -0.24 s-0.16 -0.1 -0.32 -0.16 c-0.56 -0.22 -1.5 -0.28 -2.4 -0.28 c-1.06 0 -2.16 0.14 -2.82 0.48 c-0.18 0.1 -0.28 0.18 -0.36 0.26 c-0.08 0.1 -0.14 0.2 -0.22 0.42 c-0.3 0.94 -0.4 2.28 -0.4 3.64 s0.1 2.68 0.4 3.62 c0.08 0.22 0.14 0.34 0.22 0.44 c0.08 0.08 0.18 0.16 0.36 0.24 c0.98 0.48 2.22 0.48 3.24 0.48 c0.78 0 1.56 0.04 2.28 -0.26 z  M73.48 18.82 c0.1 -0.04 0.16 -0.08 0.2 -0.12 c0.06 -0.06 0.08 -0.12 0.14 -0.26 c0.16 -0.42 0.26 -1.06 0.26 -1.68 l0 -1.52 l-3.42 0 l0 -1.06 l4.68 0 l0 5.82 l-1.08 0 l-0.12 -1.12 l-0.06 0 c-0.02 0.14 -0.06 0.28 -0.1 0.4 c-0.06 0.16 -0.1 0.26 -0.16 0.32 s-0.14 0.12 -0.26 0.18 c-0.72 0.34 -1.52 0.32 -2.3 0.32 c-1.4 0 -2.94 0.04 -4.26 -0.54 c-0.24 -0.1 -0.4 -0.18 -0.5 -0.32 s-0.18 -0.28 -0.28 -0.54 c-0.48 -1.38 -0.48 -3.3 -0.48 -4.38 c0 -1.12 0 -3 0.48 -4.4 c0.1 -0.26 0.18 -0.38 0.28 -0.52 c0.14 -0.14 0.26 -0.22 0.52 -0.36 c1.14 -0.48 2.8 -0.52 3.76 -0.52 c0.86 0 2.3 0 3.38 0.42 c0.22 0.08 0.34 0.16 0.44 0.26 c0.08 0.08 0.16 0.22 0.24 0.4 c0.32 0.72 0.42 1.62 0.44 2.4 l-1.28 0 c-0.02 -0.7 -0.12 -1.34 -0.34 -1.82 c-0.06 -0.1 -0.1 -0.18 -0.16 -0.24 s-0.16 -0.1 -0.32 -0.16 c-0.56 -0.22 -1.5 -0.28 -2.4 -0.28 c-1.06 0 -2.16 0.14 -2.82 0.48 c-0.18 0.1 -0.28 0.18 -0.36 0.26 c-0.08 0.1 -0.14 0.2 -0.22 0.42 c-0.3 0.94 -0.4 2.28 -0.4 3.64 s0.1 2.68 0.4 3.62 c0.08 0.22 0.14 0.34 0.22 0.44 c0.08 0.08 0.18 0.16 0.36 0.24 c0.98 0.48 2.22 0.48 3.24 0.48 c0.78 0 1.56 0.04 2.28 -0.26 z M84.22 14.940000000000001 l0 0.06 c0.22 0.06 0.4 0.08 0.64 0.16 c0.24 0.06 0.32 0.1 0.46 0.18 c0.1 0.08 0.2 0.16 0.28 0.3 c0.34 0.62 0.46 1.32 0.46 2.1 l0 2.26 l-1.28 0 l0 -2.26 c0 -0.58 -0.06 -1.18 -0.2 -1.6 c-0.02 -0.1 -0.08 -0.18 -0.14 -0.24 c-0.02 -0.04 -0.08 -0.08 -0.18 -0.14 c-0.4 -0.16 -0.92 -0.24 -1.46 -0.24 l-4.34 0 l0 4.48 l-1.28 0 l0 -11.36 l4.84 0 c1.1 0 2.16 0.08 2.96 0.26 c0.18 0.06 0.28 0.08 0.42 0.16 c0.1 0.08 0.16 0.12 0.24 0.26 c0.48 0.68 0.42 2.04 0.42 2.56 c0 0.56 0.04 1.62 -0.42 2.4 c-0.08 0.16 -0.14 0.24 -0.24 0.3 c-0.08 0.06 -0.24 0.12 -0.42 0.18 c-0.26 0.08 -0.52 0.12 -0.76 0.18 z M84.48 10.3 c-0.06 -0.1 -0.08 -0.16 -0.14 -0.22 c-0.08 -0.06 -0.18 -0.1 -0.3 -0.14 c-0.48 -0.16 -1.16 -0.22 -1.86 -0.22 l-3.72 0 l0 4.78 l3.72 0 c0.7 0 1.38 -0.06 1.88 -0.24 c0.14 -0.04 0.22 -0.08 0.28 -0.12 c0.06 -0.06 0.08 -0.1 0.16 -0.24 c0.22 -0.54 0.28 -1.3 0.28 -1.8 c0 -0.48 -0.06 -1.22 -0.3 -1.8 z M89.22000000000001 13.6 l5.92 0 l0 1.02 l-5.92 0 l0 4.38 l6.5 0 l0 1 l-7.78 0 l0 -11.36 l7.52 0 l0 0.94 l-6.24 0 l0 4.02 z M98.48000000000002 13.6 l5.92 0 l0 1.02 l-5.92 0 l0 4.38 l6.5 0 l0 1 l-7.78 0 l0 -11.36 l7.52 0 l0 0.94 l-6.24 0 l0 4.02 z M115.12000000000002 19.02 l0.04 0 l0 -0.84 l0 -9.54 l1.28 0 l0 11.36 l-2.22 0 l-5.96 -9.58 c-0.18 -0.26 -0.32 -0.54 -0.48 -0.84 l-0.06 0 c0 0.3 0.02 0.6 0.02 0.84 l0 9.58 l-1.28 0 l0 -11.36 l2.04 0 l6.1 9.54 c0.18 0.3 0.34 0.58 0.52 0.84 z"></path></g>
			</g>
		</svg>
	